HIERARCHY
ROOT Hips
{
	OFFSET 0.000000 0.000000 0.000000
	CHANNELS 6 Xposition Yposition Zposition Zrotation Yrotation Xrotation 
	JOINT LHipJoint
	{
		OFFSET 0.000000 0.000000 0.000000
		CHANNELS 3 Zrotation Yrotation Xrotation
		JOINT LeftUpLeg
		{
			OFFSET 1.363060 -1.794630 0.839290
			CHANNELS 3 Zrotation Yrotation Xrotation
			JOINT LeftLeg
			{
				OFFSET 2.448110 -6.726130 0.000000
				CHANNELS 3 Zrotation Yrotation Xrotation
				JOINT LeftFoot
				{
					OFFSET 2.562200 -7.039590 0.000000
					CHANNELS 3 Zrotation Yrotation Xrotation
					JOINT LeftToeBase
					{
						OFFSET 0.157640 -0.433110 2.322550
						CHANNELS 3 Zrotation Yrotation Xrotation
						End Site
						{
							OFFSET 0.000000 0.000000 0.000000
						}
					}
				}
			}
		}
	}
	JOINT RHipJoint
	{
		OFFSET 0.000000 0.000000 0.000000
		CHANNELS 3 Zrotation Yrotation Xrotation
		JOINT RightUpLeg
		{
			OFFSET -1.305520 -1.794630 0.839290
			CHANNELS 3 Zrotation Yrotation Xrotation
			JOINT RightLeg
			{
				OFFSET -2.542530 -6.985550 0.000000
				CHANNELS 3 Zrotation Yrotation Xrotation
				JOINT RightFoot
				{
					OFFSET -2.568260 -7.056230 0.000000
					CHANNELS 3 Zrotation Yrotation Xrotation
					JOINT RightToeBase
					{
						OFFSET -0.164730 -0.452590 2.363150
						CHANNELS 3 Zrotation Yrotation Xrotation
						End Site
						{
							OFFSET 0.000000 0.000000 0.000000
						}
					}
				}
			}
		}
	}
}
MOTION
Frames: 22
Frame Time: 0.008333
1.143014 15.490982 2.891922 9.523754 35.543082 24.385631 -10.699006 2.470921 -7.321299 -5.685207 27.088089 -27.661685 -0.782653 4.832126 62.890524 0.859415 4.384589 1.041379 0.435500 0.000000 -75.916400 9.124491 1.418921 -3.755761 24.057945 -10.791026 -60.843827 1.875768 -4.845842 55.361081 -6.143176 -18.418234 -34.657531 -171.797200 -0.000001 -28.867400
1.219753 15.469579 3.015815 9.677116 34.815480 24.110201 -10.815242 2.515691 -7.271491 -5.193262 27.124661 -27.137977 -0.625011 4.861625 63.673137 0.842547 3.826829 2.688778 0.434500 0.000001 -74.700500 9.171821 1.392597 -3.851686 23.788667 -11.113202 -60.390110 1.816182 -4.925200 56.578597 -6.065867 -18.095319 -35.422321 -171.614700 -0.000000 -28.584700
1.293914 15.450346 3.139521 9.795117 34.058529 23.846528 -10.921071 2.553866 -7.208404 -4.754097 27.079923 -26.698404 -0.474654 4.888735 64.461281 0.842126 3.357222 4.212797 0.409600 0.000000 -72.807099 9.212334 1.352068 -3.941576 23.574880 -11.419542 -59.885953 1.778513 -4.985915 57.612472 -5.988710 -17.722830 -36.179526 -171.466100 0.000000 -28.188600
1.365089 15.433202 3.263308 9.899812 33.281559 23.608058 -11.012965 2.587377 -7.133154 -4.392870 26.946011 -26.340381 -0.333303 4.911289 65.238627 0.854124 2.982110 5.580047 0.372300 -0.000000 -70.604800 9.251508 1.304361 -4.023335 23.380171 -11.707636 -59.338469 1.759340 -5.030383 58.473921 -5.911272 -17.307165 -36.916102 -171.355200 -0.000000 -27.768700
1.433138 15.418098 3.387286 10.004191 32.495543 23.406312 -11.090271 2.617661 -7.046160 -4.125370 26.717454 -26.073942 -0.202023 4.930298 66.012440 0.871285 2.683122 6.721162 0.328300 0.000000 -67.817800 9.291951 1.254059 -4.092980 23.180009 -11.966361 -58.759354 1.753929 -5.060585 59.180050 -5.834262 -16.862879 -37.613256 -171.283400 0.000000 -27.324400
1.497736 15.405015 3.511517 10.124908 31.708902 23.249314 -11.150801 2.645317 -6.948537 -3.966919 26.390599 -25.896375 -0.080710 4.943869 66.765129 0.890549 2.462323 7.633298 0.287300 0.000001 -64.884401 9.338295 1.207589 -4.149981 22.946102 -12.192664 -58.160835 1.757738 -5.079924 59.758312 -5.758254 -16.403408 -38.266284 -171.246600 -0.000000 -26.929001
1.558911 15.393937 3.635829 10.267747 30.930030 23.142533 -11.195263 2.670198 -6.840966 -3.920570 25.966676 -25.816398 0.030788 4.953317 67.502345 0.906951 2.305496 8.274133 0.252700 -0.000001 -61.800200 9.391521 1.168051 -4.192206 22.666476 -12.377323 -57.557683 1.766030 -5.090781 60.235003 -5.684968 -15.946939 -38.867960 -171.238500 0.000000 -26.587700
1.616629 15.384968 3.760019 10.436699 30.164285 23.087808 -11.223958 2.691131 -6.724223 -3.986352 25.448782 -25.836754 0.133035 4.958395 68.216437 0.919215 2.214088 8.648794 0.229801 0.000000 -58.862800 9.452560 1.138334 -4.219694 22.333930 -12.515976 -56.963861 1.774842 -5.095759 60.637224 -5.616060 -15.509623 -39.418220 -171.250500 -0.000000 -26.320800
1.671027 15.378147 3.883807 10.630195 29.414642 23.084947 -11.238240 2.706702 -6.599593 -4.156524 24.845063 -25.962387 0.226286 4.960307 68.910188 0.925912 2.186617 8.743190 0.220900 0.000000 -56.003700 9.520670 1.119264 -4.232642 21.951051 -12.606003 -56.392504 1.781274 -5.096890 60.987802 -5.552979 -15.103995 -39.918916 -171.274500 0.000000 -26.117500
1.722298 15.373629 4.006826 10.841745 28.681878 23.130476 -11.239885 2.714390 -6.467508 -4.418579 24.164706 -26.196201 0.310821 4.959170 69.576698 0.929336 2.239111 8.584182 0.231000 0.000000 -53.539800 9.593655 1.110200 -4.232284 21.529314 -12.647481 -55.853636 1.783753 -5.095383 61.302259 -5.496749 -14.738020 -40.372817 -171.303600 -0.000000 -25.964100
1.770687 15.371497 4.128768 11.061222 27.964212 23.219321 -11.231337 2.711847 -6.329019 -4.753926 23.420762 -26.541538 0.386525 4.956276 70.217181 0.931503 2.385206 8.178519 0.261799 0.000000 -51.395100 9.668198 1.108752 -4.220246 21.087252 -12.643159 -55.353442 1.782072 -5.091700 61.589264 -5.447502 -14.412778 -40.782744 -171.334100 -0.000000 -25.830500
1.816428 15.371829 4.249381 11.279012 27.258009 23.345518 -11.214242 2.696728 -6.184883 -5.144639 22.625634 -26.996659 0.453320 4.951607 70.824320 0.937114 2.650408 7.562246 0.315701 0.000000 -49.739700 9.741453 1.112386 -4.199128 20.643450 -12.600573 -54.894921 1.777321 -5.086076 61.851242 -5.403991 -14.121480 -41.150554 -171.366400 0.000000 -25.685900
1.859967 15.374655 4.368427 11.475911 26.560106 23.500299 -11.192552 2.666063 -6.035332 -5.562417 21.793922 -27.565152 0.510991 4.946781 71.398505 0.950385 3.053445 6.753993 0.390701 0.000000 -48.437900 9.807304 1.115821 -4.170968 20.228992 -12.522883 -54.475250 1.771553 -5.076947 62.080246 -5.365460 -13.856462 -41.476233 -171.402099 0.000000 -25.503300
1.901218 15.379871 4.485996 11.656504 25.861109 23.679950 -11.163679 2.620534 -5.882974 -6.005638 20.936326 -28.231451 0.559087 4.940229 71.928281 0.976517 3.618210 5.781058 0.483200 0.000000 -47.412900 9.868491 1.119400 -4.139606 19.841474 -12.429187 -54.092055 1.767461 -5.065749 62.275446 -5.326517 -13.591930 -41.759864 -171.452000 -0.000000 -25.259100
1.940730 15.387484 4.601876 11.795014 25.159622 23.874020 -11.133125 2.556627 -5.726275 -6.438045 20.063275 -29.001038 0.597820 4.934035 72.415308 1.020345 4.353112 4.669307 0.583600 0.000000 -46.501999 9.916626 1.116031 -4.106632 19.519517 -12.317496 -53.735105 1.767865 -5.049187 62.417910 -5.286703 -13.319516 -41.997887 -171.519300 0.000000 -24.947100
1.978595 15.397320 4.716237 11.888913 24.449715 24.078648 -11.100248 2.474258 -5.565344 -6.850378 19.178852 -29.862157 0.627446 4.927100 72.849034 1.086950 5.264777 3.459686 0.681900 0.000001 -45.689400 9.951949 1.104572 -4.074872 19.267374 -12.198083 -53.396306 1.775260 -5.027034 62.499269 -5.241989 -13.019204 -42.186625 -171.613600 0.000000 -24.560100
2.014903 15.409213 4.829208 11.935203 23.727810 24.289748 -11.064852 2.373552 -5.399970 -7.232870 18.284481 -30.805659 0.648318 4.919233 73.226044 1.179113 6.341304 2.173151 0.764100 -0.000000 -44.762600 9.974417 1.083940 -4.046550 19.088396 -12.077894 -53.066952 1.791634 -4.998883 62.511561 -5.189376 -12.675989 -42.323253 -171.742300 -0.000000 -24.106600
2.049699 15.422938 4.940933 11.934200 22.991790 24.505545 -11.026282 2.255024 -5.229142 -7.579025 17.377000 -31.821369 0.661278 4.909729 73.541358 1.298356 7.559238 0.843675 0.817100 -0.000000 -43.652200 9.985016 1.054185 -4.023449 18.980300 -11.961692 -52.739802 1.818075 -4.964706 62.450735 -5.126394 -12.279227 -42.404825 -171.910400 0.000000 -23.597900
2.083013 15.438306 5.051599 11.889692 22.241125 24.725819 -10.983492 2.119844 -5.051879 -7.886527 16.450446 -32.901123 0.667046 4.898297 73.795299 1.442882 8.876736 -0.513091 0.827600 0.000000 -42.161600 9.985695 1.016460 -4.006865 18.935022 -11.853395 -52.410580 1.854866 -4.925081 62.317585 -5.051557 -11.823692 -42.431180 -172.119800 -0.000000 -23.058300
2.114808 15.455112 5.161303 11.807882 21.477201 24.952299 -10.935349 1.969565 -4.866744 -8.155232 15.496667 -34.036895 0.666859 4.884324 73.987594 1.608692 10.242682 -1.867806 0.787500 0.000000 -40.290000 9.979039 0.972809 -3.997595 18.940440 -11.755005 -52.077511 1.901322 -4.880968 62.117697 -4.964438 -11.310517 -42.403648 -172.368900 0.000000 -22.506900
2.145073 15.473178 5.270146 11.697176 20.702088 25.186701 -10.880464 1.806257 -4.673130 -8.388461 14.508066 -35.222531 0.661723 4.867628 74.122024 1.788630 11.595642 -3.205391 0.691800 -0.000000 -37.994500 9.968258 0.925962 -3.996317 18.981130 -11.668202 -51.741119 1.956229 -4.833849 61.861004 -4.865497 -10.744949 -42.327209 -172.653100 0.000001 -21.969399
2.173991 15.492407 5.378215 11.563577 19.919427 25.433504 -10.818991 1.631751 -4.468513 -8.586565 13.476507 -36.458330 0.653230 4.848054 74.200414 1.973761 12.872585 -4.488817 0.545801 -0.000000 -35.525301 9.954663 0.877904 -4.002326 19.046899 -11.591326 -51.407637 2.017766 -4.784876 61.559391 -4.756215 -10.136544 -42.205893 -172.965900 -0.000001 -21.443200
